<svg xmlns="http://www.w3.org/2000/svg" viewBox="0 0 634 643.26"><title>FormsLogo</title><g id="Layer_2" data-name="Layer 2"><g id="Layer_1-2" data-name="Layer 1"><path d="M98.66,3.3q10.49,0,10.49,10.49V34.3q0,10.26-10.49,10.26H45.43v26h41Q97,70.56,97,81.05v20.51q0,10.5-10.5,10.5h-41v48.22q0,10.5-10.49,10.5h-24q-10.5,0-10.5-10.5V13.79Q.39,3.31,10.89,3.3Z"/><path d="M248.93,156.25q-19.05,17.58-50.54,17.58t-50.66-17.58q-19.17-17.58-19.17-46.63V64.21q0-29.05,19.17-46.63T198.39,0q31.49,0,50.54,17.58t19,46.63v45.41Q268,138.68,248.93,156.25Zm-50.66-23.44h0q11.1,0,17.82-6.59t6.83-17.09V65.19q0-10.5-6.83-17.09t-17.82-6.6q-11.11,0-18,6.6t-6.71,17v44q0,10.38,6.83,17C184.92,130.37,190.78,132.81,198.27,132.81Z"/><path d="M404.56,115,430,158.57q3.29,5.61,1.46,8.91t-8.06,3.3h-30q-9,0-12.81-8.06l-19.9-40.16h-19v37.72q0,10.5-10.5,10.5H307q-10.5,0-10.5-10.5V13.79q0-10.48,10.5-10.49H373.8q26.86,0,42.85,15.87T432.76,62Q432.76,99.12,404.56,115ZM341.7,44.56V81.05h27.46q9,0,13.92-4.76T388,62.74q0-8.66-4.88-13.42t-13.92-4.76Z"/><path d="M468.77,170.78h.13q-10.5,0-10.5-10.5V13.79q0-10.48,10.5-10.49h39.79q9.29,0,11.72,8.42L545.68,83.5h2.68l25-71.78q2.68-8.67,12.08-8.42h38q10.5,0,10.5,10.49V160.28q0,10.5-10.5,10.5H599.39q-10.5,0-10.5-10.5V86.79L591,74.58h-3.3l-22,59.94q-3.06,8.55-12.09,8.55h-15q-9.29,0-11.84-8.55L504.54,74.58h-3.3l2.08,12.21v73.49q0,10.5-10.5,10.5Z"/><path d="M99.59,450.17h0c-29.9,0-53.85-9-71.86-25.6s-27-38.49-27-65.68V289.33q0-40.78,27-65.67t71.86-24.9q44.66,0,71.32,22.6Q197.4,243.79,197.39,286q0,13.77-12.88,13.77H146.19q-10.77,0-13.77-13.07-3.88-28.24-32.83-28.24-15.72,0-24.9,9t-9.18,23.31V358q0,14.48,9.18,23.48t24.9,9q29.29,0,33-28.25,3-13.06,13.77-13.07h38.31q12.88,0,12.71,14.83,0,41.67-26.66,63.91Q143.9,450.17,99.59,450.17Z"/><path d="M323.63,450.17h0c-26.6,0-48.14-5.24-65-16.42s-27-26.77-30.72-47.14q-1.06-7,3-11.47,4-4.25,11.65-4.24H282q6,0,9,2.65,2.84,2.47,5.48,8.47,5.82,17.31,27.36,17.3,11.13,0,19.07-5.29t7.94-13.6q0-7.23-6.7-12.53a59.38,59.38,0,0,0-17.48-9q-8.31-2.82-23.84-7.59a204.13,204.13,0,0,1-26-9.89A134.65,134.65,0,0,1,253,327.64a55.5,55.5,0,0,1-17.48-21.71q-6.72-13.95-6.71-31.6,0-35.85,25.42-55.44t67.62-19.6q38.83,0,62.5,15.54Q408.2,230.55,413.49,259q1.06,7.23-2.83,11.3-4.05,4.23-11.65,4.23H360.35q-9.36,0-14.13-9-6.71-15.18-24.89-15.18-10.77,0-17.65,4.76t-6.89,12.71q0,8.31,9,14.13t22.6,9a235.89,235.89,0,0,1,29.13,9,202.91,202.91,0,0,1,29.13,13.41q13.61,7.77,22.6,22.78t9,36q0,36.38-25.6,57.21T323.63,450.17Z"/><path d="M539.37,450.17h0c-26.6,0-48.14-5.24-65-16.42S447.45,407,443.68,386.61q-1.06-7,3-11.47,4.06-4.25,11.65-4.24H497.7q6,0,9,2.65,2.82,2.47,5.47,8.47,5.82,17.31,27.37,17.3,11.12,0,19.06-5.29t7.95-13.6q0-7.23-6.71-12.53a59.25,59.25,0,0,0-17.48-9q-8.29-2.82-23.83-7.59a204.81,204.81,0,0,1-26-9.89,135,135,0,0,1-23.83-13.77,55.5,55.5,0,0,1-17.48-21.71q-6.7-13.95-6.71-31.6,0-35.85,25.43-55.44t67.61-19.6q38.85,0,62.5,15.54,23.83,15.72,29.13,44.14,1.07,7.23-2.82,11.3-4.06,4.23-11.65,4.23H576.09q-9.36,0-14.12-9-6.72-15.18-24.9-15.18-10.77,0-17.65,4.76t-6.89,12.71q0,8.31,9,14.13t22.6,9a237,237,0,0,1,29.13,9,202.91,202.91,0,0,1,29.13,13.41Q616,321.11,625,336.12t9,36q0,36.38-25.6,57.21T539.37,450.17Z"/><path d="M6.58,509.78h130a6.38,6.38,0,0,0,6.58-6.58V489.68a6.39,6.39,0,0,0-6.58-6.58H32a8.51,8.51,0,0,0-1.15.09H6.58A6.39,6.39,0,0,0,0,489.77V503.2a6.38,6.38,0,0,0,6.58,6.58Z"/><path d="M240.86,509.78h50.88a6.38,6.38,0,0,0,6.58-6.58V489.77a6.39,6.39,0,0,0-6.58-6.58H242a8.51,8.51,0,0,0-1.15-.09H187.14a6.39,6.39,0,0,0-6.58,6.58V503.2a6.38,6.38,0,0,0,6.58,6.58h53.72Z"/><path d="M342.26,509.78h79.16A6.36,6.36,0,0,0,428,503.2V489.77a6.38,6.38,0,0,0-6.58-6.58H397.13a8.51,8.51,0,0,0-1.15-.09H342.26a6.39,6.39,0,0,0-6.58,6.58V503.2a6.38,6.38,0,0,0,6.58,6.58Z"/><path d="M632.13,485.06a6.35,6.35,0,0,0-4.71-1.87H603.13a8.51,8.51,0,0,0-1.15-.09H548.26a8.51,8.51,0,0,0-1.15.09h-20.3a8.36,8.36,0,0,0-1.14-.09H471.94a6.39,6.39,0,0,0-6.58,6.58V503.2a6.38,6.38,0,0,0,6.58,6.58H627.42A6.38,6.38,0,0,0,634,503.2V489.77A6.37,6.37,0,0,0,632.13,485.06Z"/><path d="M162.06,549.84H6.58A6.39,6.39,0,0,0,0,556.42v13.52a6.39,6.39,0,0,0,6.58,6.58H162.06a6.39,6.39,0,0,0,6.58-6.58V556.42a6.39,6.39,0,0,0-6.58-6.58Z"/><path d="M368.05,549.84H212.58a6.38,6.38,0,0,0-6.58,6.58v13.52a6.38,6.38,0,0,0,6.58,6.58H368.05a6.39,6.39,0,0,0,6.59-6.58V556.42a6.39,6.39,0,0,0-6.59-6.58Z"/><path d="M627.42,549.93H600.64a7.15,7.15,0,0,0-1.15-.09H494.89a7.15,7.15,0,0,0-1.15.09H473.45a7.15,7.15,0,0,0-1.15-.09H418.57a6.39,6.39,0,0,0-6.58,6.58v13.52a6.39,6.39,0,0,0,6.58,6.58H627.42a6.39,6.39,0,0,0,6.58-6.58V556.51a6.38,6.38,0,0,0-6.58-6.58Z"/><path d="M162.06,616.57H6.58A6.39,6.39,0,0,0,0,623.15v13.52a6.39,6.39,0,0,0,6.58,6.59H162.06a6.39,6.39,0,0,0,6.58-6.59V623.15a6.39,6.39,0,0,0-6.58-6.58Z"/><path d="M342.62,616.66H318.33a8.51,8.51,0,0,0-1.15-.09H212.58a6.38,6.38,0,0,0-6.58,6.58v13.52a6.38,6.38,0,0,0,6.58,6.59h130a6.39,6.39,0,0,0,6.58-6.59V623.24a6.39,6.39,0,0,0-6.58-6.58Z"/><path d="M421.42,616.66H393.14a6.39,6.39,0,0,0-6.59,6.58v13.43a6.4,6.4,0,0,0,6.59,6.59h28.28a6.38,6.38,0,0,0,6.58-6.59V623.24a6.38,6.38,0,0,0-6.58-6.58Z"/></g></g></svg>